<?xml version="1.0" standalone="no"?>
<!DOCTYPE svg PUBLIC "-//W3C//DTD SVG 20010904//EN"
 "http://www.w3.org/TR/2001/REC-SVG-20010904/DTD/svg10.dtd">
<svg version="1.0" xmlns="http://www.w3.org/2000/svg"
 width="1000.000000pt" height="660.000000pt" viewBox="0 0 1000.000000 660.000000"
 preserveAspectRatio="xMidYMid meet">

<g transform="translate(0.000000,660.000000) scale(0.100000,-0.100000)"
fill="#000000" stroke="none">
<path d="M8742 6562 c-66 -61 -83 -113 -92 -272 -10 -193 -32 -231 -149 -265
-75 -22 -111 -48 -111 -79 0 -35 -35 -73 -74 -80 -50 -10 -128 -72 -230 -183
-48 -54 -102 -108 -118 -120 -57 -42 -108 -148 -108 -225 0 -16 -4 -38 -10
-48 -10 -19 -59 -40 -95 -40 -15 0 -26 -9 -34 -27 -19 -49 -31 -116 -31 -182
l0 -64 -41 7 c-23 4 -54 13 -70 21 -26 14 -30 13 -55 -10 -30 -28 -60 -38 -95
-33 -23 3 -24 7 -24 80 0 42 -3 80 -8 84 -13 13 -54 -35 -81 -95 -14 -31 -36
-94 -48 -139 -26 -92 -30 -95 -100 -59 l-45 23 -42 -38 c-42 -36 -148 -85
-160 -73 -3 4 -6 33 -6 66 0 50 -2 58 -17 53 -12 -3 -123 -24 -135 -24 -5 0
-23 68 -23 90 l0 27 -87 -17 c-175 -36 -277 -45 -503 -44 -315 1 -544 31
-1145 148 -568 111 -703 130 -845 121 -332 -20 -619 -112 -825 -265 -88 -65
-177 -114 -365 -200 -417 -191 -933 -339 -1478 -424 -84 -13 -155 -26 -158
-28 -2 -3 22 -8 55 -12 84 -10 154 -32 176 -56 17 -19 17 -21 1 -39 -16 -18
-18 -18 -74 3 -48 17 -80 20 -212 20 -140 0 -164 -3 -245 -28 -80 -24 -418
-154 -405 -155 3 -1 40 6 83 14 43 8 112 15 154 15 70 0 76 -2 105 -30 17 -17
28 -33 26 -36 -3 -2 -43 -9 -89 -15 -173 -21 -326 -89 -534 -235 -174 -122
-182 -129 -112 -98 81 36 152 54 220 54 62 0 187 -27 187 -40 0 -17 -78 -73
-155 -110 -96 -47 -218 -82 -380 -111 -66 -11 -122 -23 -124 -25 -11 -11 119
-58 161 -58 26 -1 44 -4 40 -7 -4 -4 -43 -31 -87 -60 l-80 -54 95 -6 c326 -22
523 11 763 130 64 31 117 57 117 55 0 -1 -51 -41 -114 -90 -63 -49 -114 -90
-112 -91 2 -2 63 17 137 41 328 106 497 203 663 376 42 44 76 78 76 75 0 -3
-25 -55 -55 -115 -30 -61 -51 -110 -45 -110 21 0 114 42 164 74 80 51 175 145
306 301 65 77 132 154 150 170 l32 30 -6 -60 c-24 -218 -105 -353 -286 -477
-24 -16 -22 -16 35 -2 130 33 252 109 336 211 48 58 110 177 135 257 l18 59
13 -29 c38 -93 21 -233 -46 -361 -21 -40 -35 -73 -31 -73 5 0 37 31 73 70 92
100 155 224 181 360 l12 65 7 -103 c4 -68 13 -117 25 -145 19 -41 91 -132 98
-124 3 2 -2 33 -11 68 -27 118 -14 259 37 379 14 34 15 33 20 -75 19 -349 219
-581 713 -826 l179 -89 11 38 c7 21 28 67 48 103 26 46 37 78 37 106 l0 40
-177 93 c-231 119 -352 200 -440 293 -108 113 -155 209 -169 340 -6 59 -5 61
11 39 9 -12 36 -64 60 -115 70 -150 164 -225 492 -395 220 -114 273 -149 314
-205 28 -38 30 -48 27 -99 -3 -44 -11 -68 -35 -100 -16 -24 -36 -68 -42 -98
-33 -145 -159 -337 -294 -446 -32 -26 -67 -64 -77 -83 -10 -20 -40 -61 -66
-91 -91 -106 -91 -150 4 -206 56 -34 99 -47 302 -89 250 -53 463 -128 731
-257 l167 -80 5 -45 c6 -53 61 -139 120 -185 26 -21 102 -54 234 -100 107 -38
197 -67 199 -65 8 8 24 111 24 154 0 57 -19 93 -74 138 -35 29 -45 44 -50 78
-13 88 -80 193 -149 236 -18 10 -61 22 -97 26 -96 11 -203 47 -420 145 -107
48 -225 97 -262 109 -87 29 -118 53 -118 94 0 61 56 118 310 314 58 45 125
102 150 128 25 26 70 64 100 85 77 52 153 136 188 207 17 33 49 124 71 202 43
149 58 185 97 238 21 27 24 43 24 110 0 376 -139 659 -457 934 -57 49 -98 89
-91 89 50 -1 255 -147 370 -264 212 -214 325 -524 290 -798 -8 -65 -17 -89
-55 -150 -32 -52 -51 -98 -66 -159 -11 -47 -29 -110 -40 -140 -12 -30 -21 -55
-21 -55 0 -1 42 -29 94 -63 296 -192 576 -324 957 -452 115 -39 215 -69 220
-67 6 2 -47 41 -118 88 -144 95 -259 202 -292 272 -37 78 -24 84 49 22 82 -70
239 -183 352 -254 80 -50 90 -60 118 -116 16 -34 37 -92 46 -130 17 -71 17
-81 -2 -490 -8 -170 7 -252 68 -375 69 -140 54 -184 -67 -195 -58 -5 -88 -1
-175 21 -58 15 -141 29 -186 31 -70 3 -91 9 -160 43 -90 45 -167 68 -263 77
-46 5 -63 3 -56 -4 6 -6 106 -82 223 -170 l212 -159 133 -11 c96 -8 154 -19
212 -39 64 -22 98 -27 170 -27 123 -1 179 17 236 74 56 56 74 120 64 227 -6
60 0 95 45 288 90 387 102 450 109 611 7 138 10 156 36 209 61 126 127 206
419 510 327 340 432 462 538 625 64 96 64 97 35 20 -54 -143 -154 -311 -278
-465 -35 -44 -163 -182 -285 -306 -237 -243 -300 -320 -345 -414 -28 -59 -38
-112 -19 -100 5 3 40 -10 78 -29 59 -30 485 -202 645 -260 53 -20 77 -47 77
-88 0 -15 -28 -82 -62 -150 -51 -101 -75 -136 -133 -194 -99 -99 -207 -184
-236 -184 -45 0 -99 -21 -111 -43 -6 -12 -12 -40 -12 -61 -1 -34 -6 -43 -33
-59 -30 -17 -34 -17 -63 -2 -31 16 -31 16 -21 -4 27 -50 3 -153 -55 -228 -13
-17 -24 -34 -24 -37 0 -2 26 13 58 34 85 57 164 80 273 80 63 0 101 5 125 16
43 21 96 82 129 148 13 28 95 140 182 248 119 148 167 201 196 214 49 22 93
73 106 121 17 62 14 209 -6 251 -23 51 -131 155 -200 194 -87 49 -177 140
-253 256 l-68 105 62 71 c232 266 353 511 625 1267 66 185 146 397 177 470 55
132 121 269 128 269 2 0 23 -9 47 -20 55 -25 120 -25 197 -1 l60 18 114 -91
c177 -141 295 -215 393 -246 22 -7 56 -27 75 -45 19 -18 45 -38 57 -44 55 -28
183 2 183 43 -1 57 -67 177 -147 267 -24 26 -43 49 -43 52 0 7 121 -76 176
-121 22 -17 57 -55 78 -83 36 -46 41 -49 70 -43 73 16 117 75 142 193 7 36 14
73 14 82 0 16 -116 174 -227 310 -59 72 -157 170 -199 199 -11 8 -44 60 -72
115 -86 166 -206 307 -387 451 -108 87 -92 89 -374 -30 -35 -15 -66 -25 -69
-22 -3 3 41 53 97 111 97 99 103 108 97 138 -4 18 -10 100 -14 182 -7 123 -13
160 -31 203 -13 28 -27 52 -31 52 -3 0 -25 -17 -48 -38z m463 -850 c43 -6 51
-11 60 -35 8 -24 6 -31 -10 -43 -32 -24 -77 -16 -167 28 -48 24 -87 46 -87 50
-2 18 73 18 204 0z m674 -750 c39 -19 71 -72 71 -117 0 -29 0 -29 -15 -9 -16
23 -73 54 -99 54 -10 0 -28 -11 -41 -24 -22 -23 -26 -23 -34 -8 -23 45 -22 72
3 97 30 30 67 32 115 7z"/>
<path d="M8455 6477 c-8 -20 -15 -49 -15 -65 l0 -28 63 4 c34 2 65 4 68 5 4 1
-17 29 -47 62 l-53 59 -16 -37z"/>
<path d="M8488 6353 c-36 -6 -35 -14 2 -35 36 -20 38 -41 8 -62 -35 -25 -99
-20 -170 14 -92 44 -115 39 -56 -10 30 -25 31 -28 16 -49 -29 -42 -83 -72
-183 -103 -121 -37 -128 -41 -90 -48 27 -5 19 -10 -68 -44 -106 -41 -169 -83
-204 -135 -31 -46 -29 -52 11 -36 34 14 46 12 46 -10 0 -15 -26 -26 -130 -56
-41 -12 -91 -29 -111 -39 -59 -31 -144 -137 -91 -115 40 17 108 17 121 1 16
-20 14 -21 -91 -35 -99 -14 -151 -35 -188 -77 -38 -44 -39 -64 -1 -64 16 0 34
-6 40 -14 11 -13 7 -13 -26 -4 -21 6 -69 8 -108 6 -102 -7 -212 -68 -122 -68
32 0 77 -23 77 -40 0 -4 -28 -11 -62 -15 -90 -10 -151 -39 -203 -97 -25 -28
-45 -54 -45 -58 0 -5 21 -12 48 -15 26 -3 54 -7 62 -9 8 -1 -3 -10 -24 -20
-90 -38 -134 -94 -150 -189 -8 -45 -14 -46 123 9 65 26 87 31 93 21 14 -22 9
-41 -28 -100 -20 -32 -33 -61 -30 -65 8 -7 108 89 146 140 l27 37 28 -42 c14
-24 35 -48 45 -55 17 -10 19 -5 29 54 19 108 47 169 106 229 29 30 60 55 68
55 9 0 25 -12 37 -27 18 -23 21 -37 17 -83 -2 -30 -8 -64 -13 -75 -8 -19 -7
-19 16 -4 36 23 67 74 75 120 l7 41 29 -58 c30 -59 56 -94 70 -94 4 0 8 30 8
68 1 68 18 151 48 230 l16 44 16 -27 c16 -26 52 -42 69 -31 5 3 12 35 14 70 3
36 15 84 27 108 23 48 349 387 391 406 14 6 42 18 63 26 31 13 37 20 37 44 0
21 10 39 34 60 33 29 130 72 162 72 31 0 72 30 84 62 19 55 25 178 9 189 -14
9 -80 10 -131 2z"/>
<path d="M8880 6226 c0 -4 5 -27 11 -52 11 -41 10 -47 -15 -83 -15 -21 -50
-57 -79 -81 -29 -23 -47 -41 -42 -38 6 2 41 19 80 37 38 18 96 39 130 46 42 9
55 15 42 20 -10 4 -22 16 -28 28 -10 18 -9 19 15 15 18 -4 35 1 49 13 l22 18
-38 1 c-46 0 -71 12 -114 53 -18 17 -33 28 -33 23z"/>
<path d="M4683 2957 c-34 -29 -104 -88 -155 -132 -52 -44 -147 -120 -211 -170
-108 -83 -117 -92 -115 -120 3 -28 9 -32 88 -61 47 -17 136 -54 198 -83 62
-28 134 -60 161 -71 l48 -19 6 77 c4 42 9 147 13 232 3 85 12 182 19 215 19
86 29 185 19 184 -5 0 -37 -23 -71 -52z"/>
<path d="M4162 1967 c3 -25 14 -63 25 -84 20 -40 96 -99 142 -110 14 -3 86
-32 158 -65 73 -32 136 -58 139 -58 4 0 -1 9 -12 21 -10 11 -37 57 -59 102
l-40 82 -155 71 c-85 39 -166 75 -179 79 -23 7 -24 6 -19 -38z"/>
<path d="M5312 1595 c-13 -102 -39 -157 -82 -175 l-32 -13 99 -50 c133 -66
303 -180 391 -262 57 -53 72 -63 72 -47 0 30 46 79 86 92 19 7 65 15 102 18
l67 7 -120 100 c-181 151 -540 415 -564 415 -5 0 -13 -38 -19 -85z"/>
<path d="M4837 1592 c-20 -22 -37 -67 -37 -97 0 -15 22 -50 58 -92 76 -89 97
-120 111 -166 24 -72 90 -58 131 30 24 52 60 167 60 195 0 12 -17 21 -57 33
-66 19 -144 57 -190 91 -38 29 -55 30 -76 6z"/>
<path d="M6965 1515 c-58 -20 -150 -123 -208 -233 -51 -97 -54 -122 -15 -143
15 -8 37 -7 88 6 37 9 91 17 120 18 46 2 56 6 81 36 52 62 68 142 52 256 -5
42 -10 49 -39 61 -18 8 -35 14 -36 14 -2 -1 -21 -7 -43 -15z"/>
<path d="M5900 1101 c-73 -23 -160 -102 -160 -146 0 -52 120 -107 325 -149 11
-2 -1349 -4 -3022 -5 l-3043 -1 0 -400 0 -400 5000 0 5000 0 0 400 0 400
-1921 0 c-1746 0 -1919 1 -1905 16 19 19 20 9 -4 87 -23 75 -98 183 -136 197
-29 12 -98 12 -134 1z m-5566 -643 c16 -46 33 -94 39 -108 8 -22 13 -14 47 80
30 83 42 106 58 108 20 3 19 -2 -15 -95 -19 -54 -40 -113 -46 -131 -9 -27 -15
-32 -36 -30 -22 3 -29 16 -68 123 -24 65 -43 123 -43 127 0 4 8 8 18 8 13 0
25 -21 46 -82z m1109 71 c14 -6 30 -22 36 -36 15 -32 14 -33 -9 -33 -11 0 -20
4 -20 10 0 5 -11 17 -25 26 -34 22 -78 5 -73 -29 2 -17 15 -26 58 -40 61 -19
80 -38 80 -78 0 -38 -42 -69 -92 -69 -30 0 -46 7 -69 29 -16 16 -29 34 -29 40
0 17 37 13 44 -4 16 -41 106 -38 106 4 0 25 -17 38 -64 46 -48 10 -76 36 -76
74 0 55 72 88 133 60z m627 -61 l0 -72 38 37 c21 20 46 37 57 37 16 0 12 -7
-18 -38 l-37 -38 40 -57 c39 -54 40 -57 18 -57 -15 1 -32 14 -50 40 -15 22
-32 40 -38 40 -5 0 -10 -18 -10 -40 0 -33 -3 -40 -20 -40 -19 0 -20 7 -20 130
0 123 1 130 20 130 18 0 20 -7 20 -72z m-1150 27 c0 -18 5 -25 20 -25 11 0 20
-7 20 -15 0 -8 -9 -15 -20 -15 -18 0 -20 -7 -20 -65 0 -58 2 -65 20 -65 11 0
20 -7 20 -16 0 -11 -8 -14 -32 -12 l-33 3 -3 74 c-3 63 -6 74 -22 78 -26 7
-26 33 0 33 15 0 20 7 20 25 0 16 6 25 15 25 9 0 15 -9 15 -25z m648 -3 c2
-14 11 -22 23 -22 10 0 19 -7 19 -15 0 -8 -9 -15 -20 -15 -18 0 -20 -7 -20
-65 0 -58 2 -65 20 -65 11 0 20 -7 20 -16 0 -11 -8 -14 -32 -12 l-33 3 -3 74
c-3 63 -6 74 -22 78 -26 7 -26 33 1 33 13 0 20 6 18 18 -2 28 0 34 14 30 6 -3
13 -14 15 -26z m-943 -47 c14 -13 25 -36 25 -50 0 -24 -2 -25 -65 -25 -69 0
-82 -12 -49 -44 20 -20 43 -20 65 0 10 9 26 14 36 12 31 -6 -29 -58 -67 -58
-46 0 -90 47 -90 95 0 79 92 124 145 70z m189 4 c27 -22 35 -49 13 -49 -7 0
-20 9 -30 20 -34 40 -87 14 -87 -42 0 -59 53 -88 87 -48 20 23 43 26 43 6 0
-22 -49 -56 -82 -56 -19 0 -40 10 -59 29 -81 81 25 211 115 140z m317 -8 c21
-22 29 -39 29 -66 0 -48 -44 -95 -90 -95 -46 0 -90 47 -90 95 0 48 44 95 90
95 22 0 41 -9 61 -29z m99 19 c0 -7 6 -7 19 0 29 15 41 12 41 -10 0 -13 -7
-20 -18 -20 -31 0 -42 -22 -42 -87 0 -56 -2 -63 -20 -63 -19 0 -20 7 -20 95 0
88 1 95 20 95 11 0 20 -5 20 -10z m551 -19 c21 -22 29 -39 29 -66 0 -48 -44
-95 -90 -95 -46 0 -90 47 -90 95 0 48 44 95 90 95 22 0 41 -9 61 -29z m193 8
c27 -22 35 -49 13 -49 -7 0 -20 9 -30 20 -34 40 -87 14 -87 -42 0 -59 53 -88
87 -48 20 23 43 26 43 6 0 -22 -49 -56 -82 -56 -19 0 -40 10 -59 29 -81 81 25
211 115 140z m6936 13 c0 -23 -68 -206 -78 -210 -8 -2 -8 9 2 40 29 93 61 178
68 178 5 0 8 -4 8 -8z m-1856 -70 c11 -34 23 -62 26 -62 4 0 17 29 29 65 13
37 29 65 37 65 11 0 10 -9 -5 -47 -10 -27 -24 -65 -30 -85 -20 -62 -42 -50
-74 40 -31 87 -32 95 -15 90 7 -3 21 -32 32 -66z m760 52 c9 -8 16 -20 16 -25
0 -14 -20 -11 -36 6 -18 17 -24 18 -43 6 -23 -15 -6 -36 38 -50 36 -10 41 -15
41 -41 0 -32 -22 -50 -61 -50 -25 0 -59 26 -59 47 0 18 7 16 30 -7 24 -24 43
-25 60 -5 16 19 7 29 -42 44 -22 7 -40 21 -43 32 -15 46 63 79 99 43z m406
-31 l0 -47 30 29 c35 33 54 26 22 -8 l-22 -23 26 -37 c31 -47 10 -50 -28 -5
l-27 33 -1 -32 c0 -23 -5 -33 -15 -33 -12 0 -15 16 -15 85 0 69 3 85 15 85 11
0 15 -12 15 -47z m825 27 c-16 -51 -66 -150 -76 -150 -12 0 -6 24 27 94 l24
51 -50 3 c-73 4 -61 22 16 22 61 0 65 -1 59 -20z m106 10 c31 -17 24 -59 -18
-102 l-37 -38 42 0 c23 0 42 -4 42 -10 0 -6 -27 -10 -60 -10 -37 0 -60 4 -60
11 0 6 21 30 47 53 33 30 45 47 40 59 -11 29 -38 33 -58 9 -20 -26 -29 -28
-29 -8 0 37 51 57 91 36z m139 -10 c45 -45 15 -150 -42 -150 -22 0 -58 26 -58
42 0 14 28 9 34 -7 11 -30 49 -14 61 25 6 20 5 23 -6 13 -31 -30 -89 -4 -89
39 0 52 63 75 100 38z m131 10 c31 -17 24 -59 -18 -102 l-37 -38 42 0 c23 0
42 -4 42 -10 0 -6 -27 -10 -60 -10 -37 0 -60 4 -60 11 0 6 21 30 47 53 33 30
45 47 40 59 -11 29 -38 33 -58 9 -20 -26 -29 -28 -29 -8 0 37 51 57 91 36z
m149 -5 c0 -8 -9 -20 -19 -27 -18 -11 -18 -12 5 -31 28 -22 31 -53 7 -79 -30
-34 -103 -14 -103 28 0 20 9 18 29 -7 13 -16 23 -20 40 -14 31 9 26 59 -6 63
-28 4 -29 10 -1 39 l21 23 -41 0 c-23 0 -42 5 -42 10 0 6 25 10 55 10 42 0 55
-4 55 -15z m145 -5 c-16 -51 -66 -150 -76 -150 -12 0 -6 24 27 94 l24 51 -50
3 c-73 4 -61 22 16 22 61 0 65 -1 59 -20z m-2255 -5 c0 -8 7 -15 15 -15 8 0
15 -4 15 -10 0 -5 -7 -10 -15 -10 -11 0 -15 -12 -15 -45 0 -33 4 -45 15 -45 8
0 15 -4 15 -10 0 -16 -47 -11 -54 6 -3 9 -6 33 -6 54 0 21 -6 41 -12 44 -10 5
-10 7 0 12 6 3 12 12 12 20 0 8 7 14 15 14 8 0 15 -7 15 -15z m430 0 c0 -8 7
-15 15 -15 8 0 15 -4 15 -10 0 -5 -7 -10 -15 -10 -11 0 -15 -12 -15 -45 0 -33
4 -45 15 -45 8 0 15 -4 15 -10 0 -16 -47 -11 -54 6 -3 9 -6 33 -6 54 0 21 -6
41 -12 44 -10 5 -10 7 0 12 6 3 12 12 12 20 0 8 7 14 15 14 8 0 15 -7 15 -15z
m-638 -32 c10 -9 18 -24 18 -35 0 -15 -8 -18 -45 -18 -47 0 -56 -9 -30 -30 13
-11 20 -11 40 0 31 16 42 8 20 -14 -36 -36 -95 -6 -95 47 0 57 52 86 92 50z
m132 1 c30 -30 16 -46 -15 -18 -23 21 -47 12 -55 -21 -11 -44 29 -72 56 -40
14 17 30 20 30 6 0 -17 -31 -41 -52 -41 -32 0 -58 29 -58 63 0 57 58 88 94 51z
m216 -4 c56 -56 -23 -146 -82 -93 -10 9 -18 30 -18 46 0 60 59 88 100 47z
m100 9 c0 -4 -9 -13 -20 -19 -15 -8 -20 -21 -20 -55 0 -33 -4 -45 -15 -45 -12
0 -15 14 -15 64 l0 64 35 0 c19 0 35 -4 35 -9z m323 -1 c28 -22 32 -73 8 -97
-41 -41 -101 -15 -101 42 0 55 52 85 93 55z m131 -4 c31 -31 16 -46 -16 -17
-25 23 -53 6 -53 -32 0 -38 28 -55 53 -32 32 29 47 14 16 -17 -35 -36 -94 -6
-94 47 0 57 58 88 94 51z m310 0 c31 -31 16 -46 -16 -17 -25 23 -53 6 -53 -32
0 -38 28 -55 53 -32 32 29 47 14 16 -17 -35 -36 -94 -6 -94 47 0 57 58 88 94
51z m136 -4 c56 -56 -23 -146 -82 -93 -10 9 -18 30 -18 46 0 60 59 88 100 47z
m198 7 c14 -10 17 -117 2 -117 -5 0 -10 20 -10 44 0 51 -20 76 -45 56 -9 -8
-15 -30 -15 -56 0 -62 -18 -55 -22 9 -3 44 -6 52 -23 52 -17 0 -20 -8 -23 -52
-2 -38 -7 -53 -18 -53 -11 0 -14 15 -14 64 l0 64 78 -2 c42 -1 83 -5 90 -9z
m-448 -102 c0 -8 -7 -15 -15 -15 -8 0 -15 7 -15 15 0 8 7 15 15 15 8 0 15 -7
15 -15z"/>
<path d="M532 428 c-22 -22 -13 -28 38 -28 48 0 50 1 40 20 -12 23 -59 27 -78
8z"/>
<path d="M1037 422 c-34 -38 -10 -112 36 -112 26 0 47 29 47 65 0 58 -49 85
-83 47z"/>
<path d="M1687 422 c-34 -38 -10 -112 36 -112 26 0 47 29 47 65 0 58 -49 85
-83 47z"/>
<path d="M9219 424 c-17 -21 0 -49 32 -49 18 0 25 6 27 24 6 38 -34 55 -59 25z"/>
<path d="M7190 385 c-11 -13 -7 -15 25 -15 32 0 36 2 25 15 -7 8 -18 15 -25
15 -7 0 -18 -7 -25 -15z"/>
<path d="M7530 386 c-15 -19 -9 -56 12 -69 34 -22 66 41 36 71 -16 16 -33 15
-48 -2z"/>
<path d="M7960 386 c-15 -19 -9 -56 12 -69 34 -22 66 41 36 71 -16 16 -33 15
-48 -2z"/>
<path d="M8530 385 c-15 -18 -5 -64 15 -72 35 -13 61 47 33 75 -16 16 -33 15
-48 -3z"/>
</g>
</svg>
